<svg xmlns="http://www.w3.org/2000/svg" viewBox="0 0 73.29 80.63" preserveAspectRatio="none"><path d="M71.72 3.74c-.4-.17-.59.23-.64.41 0-.03.01-.06.02-.1-.47.34-1.12-.65-1.34.04.63-.17-1.05.46-1.18-.12-.43-.96-.94-1.13-1.62-.33-.29-.6-1.65-.09-1.57-.65-.45.11-1.3-.04-2.67-.02-1.09.33-1.74 0-2.65 0-.5.04-1.01-.76-1.51.01-.5-.28-1.04.45-1.39-.39-.14.17-.1-.38-.26-.5-.38.14-1.49 0-1.95-.15-1.08-.35-2.16-.09-3.25 0-.54.43-1.07.41-1.61 0-.71-.2-1.4-.81-2.11-.18-.65-.77-1.16.58-1.71.18-.29.34-.65-.62-.96.36-.66-.29-1.07-.33-1.65.25-.37.4-.45.94-.97.41-.43-.55-.65-.68-1 .36-.18.3-.3.58-.51.34-.5-.08-1.53-.04-2.05 0-.86-1.03-1.73-.15-2.59 0-.66-1.41-1.33-.44-1.99 0-.33-.35-.85.35-1.16.02-.36-.89-.19-.78-.5-.34-.47-.43-.93-.03-1.51-.84-.51-.31-.9-.37-1.45-.22-.7-.01-1.26-.02-1.94-.35-.57-.8-.97.3-1.39-.37-.2.37-.36.09-.57-.48-.62-1.21-1.3-.15-2.12-.89-1.18-.75-2.3.78-3.46.2-.48.42-1.16.29-1.58.08-.56-.48-.99.76-1.5 1.12-.54-.62-1.03-.01-1.63.37-.68.43-.83 1.09-1.28.93-.54 1.15-1.59.35-2.34.27-1.11-.39-2.09 1.06-3.15-.17-.62-.04-.85.89-1.41-.25-.61.09-1.12-.43-1.59-.13-.79.32-.62-.02-1.01.17-.37.21-.91.82-1.31.18-.73.52-2.04.92-1.98.75-.69.25-1.06-.56-1.36-.83 0-.39-.12-.51-.33-.53v76.69c.07.85 1.13-.15 1.14.18.22 0 .57 1.4.81.41.75.65 1.27.2 1.79.15.73 1.5.94.58 1.81.03.6-1.65 1.12-.44 1.53-.22.24-.15.44.05.46-.19.12.77.49 1.9.53-.66-.04-.32-.08-.53-.11-.67.06.11.15.25.31.37.12.34.71.42.77-.14.69-.11 1.03-.79 1.35-.84.3-1.18.46.51.93-.58.41-.5.63-.54 1-.35.23-.05.44-.46.67-.14.27-.05.4-.83.71-.49.34.98.51-.49.8.16.3.79.62.45.93.09.33.69.6-1.02.92.14.29-.36.49-.82.75.36.57-.16 1.21.07 1.87 1.02.58.09 1.19 1.23 1.79.04.6.74 1.21-.65 1.8-.05.66-.68 1.31.04 1.97 0 .72 1.11 1.16 2 1.77.67.45.61.83 1.7 1.4.5.24.97.54.32.78.02.43-.2.76-.8 1.21-.42.86 1.39 1.74-.57 2.6 0 .21.32.42-.49.62 0 .45.17.82.51 1.25-.38.3-.11.63-.04.94 0 .53-.21 1.02-.25 1.54-.21.73.35 1.28-.78 1.95.45.49.44 1.01 1.17 1.56.73.37.09.69-.05 1.06.08.63.46 1.08 1.02 1.72.3.58-.04 1.07-.91 1.63.15.88.07 1.73 1.25 2.65.24.63.03 1.27-1.82 1.9.01.81.06 1.5.03 2.25-.99.33.44.64.44.97-.18.38.84.55-.39.9-.56.13-.58.37.49.51-.08.31.39.58-1.01.88-.31.44.03.96-.18 1.41-.03.7-.55 1.4 1.06 2.1 0 .76-.14 1.44.19 2.21-.19.22-.74.52-.42.71-.08.22-.11.12-.58.4-.52.33-.08.94-.22 1.27.01.39-.02.78.2 1.17 0 .39.81.64.55 1.27 0 .23.3.74-.16.77-.21.3.1.77.59.8.04.04-.3.52 1.15.84.87.41.79.56-.13.84.21 0 .1.11.8.39.09-.13 1.2.12-.55.16.24.74 1.59.95 2.36 1.78 1.51.51.56.6-.6 1.01.46.57-.53.92-.13 1.42.24.03.04.07.08.11.12V3.56c-1.13-.41-1.63-.49-1.56.18Z"/></svg>