<?xml version="1.0" encoding="UTF-8" standalone="no"?>
<!DOCTYPE svg PUBLIC "-//W3C//DTD SVG 1.1//EN" "http://www.w3.org/Graphics/SVG/1.1/DTD/svg11.dtd">
<svg width="100%" height="100%" viewBox="0 0 165 165" version="1.1" xmlns="http://www.w3.org/2000/svg" xmlns:xlink="http://www.w3.org/1999/xlink" xml:space="preserve" xmlns:serif="http://www.serif.com/" style="fill-rule:evenodd;clip-rule:evenodd;stroke-linejoin:round;stroke-miterlimit:2;">
    <g transform="matrix(1,0,0,1,-50.7976,-124.251)">
        <g transform="matrix(0.408746,0,0,0.408746,78.8043,126.989)">
            <g transform="matrix(4.16667,0,0,4.16667,44.286,46.25)">
                <g>
                    <path d="M0,0.256L1.114,0.865C2.43,1.585 3.512,2.667 4.232,3.983L4.841,5.096C4.896,5.198 5.042,5.198 5.097,5.096L5.706,3.983C6.426,2.667 7.508,1.585 8.824,0.865L9.938,0.256C10.039,0.2 10.039,0.055 9.938,0L8.822,-0.61C7.507,-1.33 6.425,-2.411 5.706,-3.727L5.097,-4.841C5.042,-4.942 4.896,-4.942 4.841,-4.841L4.232,-3.728C3.512,-2.412 2.43,-1.329 1.114,-0.609L0,0C-0.101,0.055 -0.101,0.2 0,0.256" style="fill:rgb(34,157,206);fill-rule:nonzero;"/>
                </g>
            </g>
            <g transform="matrix(4.16667,0,0,4.16667,215.603,116.09)">
                <g>
                    <path d="M0,-1.482L-1.119,-0.87C-1.221,-0.814 -1.221,-0.668 -1.119,-0.612L0,-0.001C1.323,0.723 2.41,1.81 3.133,3.133L3.745,4.252C3.801,4.354 3.947,4.354 4.002,4.252L4.615,3.133C5.337,1.81 6.425,0.723 7.747,-0L8.867,-0.612C8.969,-0.668 8.969,-0.814 8.867,-0.87L7.748,-1.482C6.425,-2.205 5.338,-3.293 4.615,-4.615L4.002,-5.734C3.947,-5.836 3.801,-5.836 3.745,-5.734L3.134,-4.617C2.411,-3.294 1.323,-2.206 0,-1.482" style="fill:rgb(34,157,206);fill-rule:nonzero;"/>
                </g>
            </g>
            <g transform="matrix(4.16667,0,0,4.16667,175.336,25.11)">
                <g>
                    <path d="M0,0.314L1.365,1.06C2.979,1.943 4.305,3.269 5.187,4.882L5.933,6.247C6.001,6.372 6.18,6.372 6.248,6.247L6.994,4.882C7.876,3.269 9.203,1.943 10.816,1.06L12.181,0.314C12.305,0.246 12.305,0.068 12.181,0L10.816,-0.747C9.203,-1.629 7.876,-2.955 6.994,-4.568L6.248,-5.934C6.18,-6.058 6.001,-6.058 5.933,-5.934L5.187,-4.569C4.305,-2.956 2.979,-1.63 1.367,-0.748L0,0C-0.124,0.067 -0.124,0.246 0,0.314" style="fill:rgb(34,157,206);fill-rule:nonzero;"/>
                </g>
            </g>
            <g transform="matrix(4.16667,0,0,4.16667,196.961,148.91)">
                <g>
                    <path d="M0,27.771L-3.463,29.665C-7.555,31.903 -10.919,35.267 -13.158,39.36L-15.051,42.822C-15.224,43.138 -15.676,43.138 -15.848,42.822L-17.742,39.36C-19.979,35.268 -23.344,31.903 -27.436,29.665L-30.899,27.771C-31.214,27.599 -31.214,27.147 -30.899,26.975L-27.437,25.081C-23.344,22.843 -19.98,19.478 -17.742,15.385L-15.848,11.923C-15.676,11.609 -15.224,11.609 -15.051,11.923L-13.157,15.386C-10.919,19.478 -7.555,22.843 -3.463,25.081L0,26.975C0.315,27.146 0.315,27.599 0,27.771M16.373,24.982C16.373,21.707 15.859,18.651 14.972,16.061C13.253,10.588 9.394,6.247 6.424,3.546C5.571,2.771 4.257,3.702 4.711,4.761C7.904,12.204 4.739,13.208 4.739,13.208C4.739,13.208 -2.753,18.453 -3.011,-5.34C-3.016,-5.757 -3.023,-6.16 -3.023,-6.593C-3.023,-17.522 -6.787,-23.333 -11.057,-26.416C-12.28,-27.299 -13.542,-27.958 -14.772,-28.448C-16.528,-29.148 -18.214,-29.506 -19.604,-29.682C-20.604,-29.809 -21.22,-28.588 -20.507,-27.874C-20.006,-27.372 -19.57,-26.834 -19.189,-26.272C-14.967,-20.043 -17.756,-10.621 -17.756,-10.621C-17.756,-10.621 -19.186,-1.663 -24.868,-2.253C-26.211,-2.394 -27.018,-3.354 -27.487,-4.716C-28.311,-7.108 -28.056,-10.78 -27.652,-13.636C-27.497,-14.735 -28.892,-15.333 -29.565,-14.452C-34.129,-8.472 -43.155,4.335 -45.975,15.506C-46.182,16.325 -46.354,17.133 -46.489,17.93C-47.004,20.591 -47.271,23.292 -47.271,25.757C-47.271,32.63 -45.092,38.995 -41.387,44.197C-35.692,52.291 -26.28,57.58 -15.631,57.58C-15.597,57.58 -15.563,57.579 -15.529,57.578C-15.502,57.579 -15.476,57.58 -15.45,57.58C2.125,57.58 16.373,43.332 16.373,25.757C16.373,25.625 16.369,25.493 16.367,25.36C16.369,25.234 16.373,25.109 16.373,24.982" style="fill:rgb(34,157,206);fill-rule:nonzero;"/>
                </g>
            </g>
        </g>
        <g transform="matrix(1,0,0,1,20.2708,105.349)">
            <rect x="30.527" y="18.903" width="164.405" height="164.405" style="fill:none;"/>
        </g>
    </g>
</svg>
