<svg xmlns="http://www.w3.org/2000/svg" fill="none" viewBox="0 0 500 500">
  <path fill="#fff" d="m228 78-11 1c-49 8-94 31-129 67l-42 39-3 3 4-2c8-3 21-11 56-35 17-12 54-29 77-35a198 198 0 0 1 158 22c51 25 63 29 81 33 18 3 42 0 56-6l4-2h-10c-12 0-30-2-41-5-17-4-28-10-62-33-43-29-75-43-110-47h-28Z"/>
  <path fill="#fff" d="M206 146c-51 6-98 31-131 70l-17 17-13 6c-19 9-23 14-29 33l-3 13-1 3 5-4c6-5 18-13 23-15l9-2c5 0 5 0 16 10 12 11 25 21 38 27 11 5 16 10 18 15l3 17c2 19 6 28 20 42 9 9 16 13 27 17 13 5 35 8 35 5l-5-3c-11-6-24-20-29-33-4-7-5-18-3-25 2-6 7-11 13-14 5-2 7-2 18-2s13 0 19 2c14 5 17 8 47 39 32 31 44 41 60 49 26 14 56 15 78 4 8-4 18-14 21-21 6-12 6-26 1-34-7-10-15-7-25 7a47 47 0 0 1-42 23c-29 0-64-23-79-53-3-7-3-8-3-16 0-14 4-20 23-32l10-7h-30l-10 4c-39 16-82 18-122 7-21-7-41-23-48-38-3-5-3-8-3-15s0-9 3-14c7-15 35-35 59-44 15-5 24-6 40-6 12 0 16 0 22 2 7 2 14 7 14 10 0 1-2 2-17 2-14 0-28 1-30 3l2 4c5 9 3 21-6 30-8 7-13 9-23 9-11 0-16-2-21-9l-4-4-1 3c-6 15 12 35 39 42 8 2 11 2 31 2h25c2-1 2-1-1-5-5-6-8-12-8-13l6 1 26 7c6 0 7 0 16-7 13-10 21-24 21-36 1-7-2-10-13-15l-8-5 3-3c8-5 41 4 57 16l4 3v7c-1 11-8 25-21 39l-7 7h12c12-1 13-1 15-4 5-6 13-19 17-28 4-6 6-10 9-12s4-2 13-2c36 2 53 0 71-6 15-5 27-11 37-22 8-7 11-11 7-9-23 7-47 10-71 9-31-2-52-8-91-25-36-20-77-28-118-23Z"/>
  <path fill="#fff" d="M461 229c-9 5-29 11-41 14l-28 1-18 1-4 7-9 15c0 1 35-2 50-6 15-3 22-6 31-13l27-23-8 4Zm-54 51c-7 2-30 4-46 5h-16l-22 16-23 18c-2 2-2 10 1 16s11 14 17 20c20 17 39 22 57 13 7-4 14-11 16-17 2-7 1-13-2-15-3-4-6-4-15 2-10 7-16 9-23 9-8 0-13-2-17-6-3-3-3-4-3-8 0-5 2-9 6-9h9c12-1 17-4 15-9 0-2 4-7 7-7 11-3 26-11 34-19l9-10-4 1Z"/>
</svg>
